<?xml version="1.0" encoding="utf-8"?>
<svg viewBox="0 0 270 80" xmlns="http://www.w3.org/2000/svg">
  <defs>
    <clipPath id="clippath0" transform="">
      <path d="M 0 60 L 155 60 L 155 0 L 0 0 Z" style="fill: none; clip-rule: nonzero;"/>
    </clipPath>
  </defs>
  <g class="page-1" transform="matrix(3.999976, 0, 0, -3.999976, -26.853621, 134.676409)" style="">
    <g class="page-1" transform="matrix(0.500003, 0, 0, 0.500003, 1.713359, 8.669141)">
      <g style="clip-path: url('#clippath0');">
        <g transform=""/>
      </g>
      <g style="clip-path: url('#clippath0');">
        <g transform="translate(140.0001 10.0001)">
          <path d="M 0 0 L -125 0 C -127.75 0 -130 2.25 -130 5 L -130 35 C -130 37.75 -127.75 40 -125 40 L 0 40 C 2.75 40 5 37.75 5 35 L 5 5 C 5 2.25 2.75 0 0 0" style="fill: rgb(0, 0, 0); fill-opacity: 1;"/>
        </g>
      </g>
      <g style="clip-path: url('#clippath0');">
        <g transform="translate(140.0001 49.9999)">
          <path d="M 0 0 L -125 0 C -127.75 0 -130 -2.25 -130 -5 L -130 -35 C -130 -37.75 -127.75 -40 -125 -40 L 0 -40 C 2.75 -40 5 -37.75 5 -35 L 5 -5 C 5 -2.25 2.75 0 0 0 M 0 -0.8 C 2.316 -0.8 4.2 -2.684 4.2 -5 L 4.2 -35 C 4.2 -37.316 2.316 -39.2 0 -39.2 L -125 -39.2 C -127.316 -39.2 -129.2 -37.316 -129.2 -35 L -129.2 -5 C -129.2 -2.684 -127.316 -0.8 -125 -0.8 Z" style="fill: rgb(166, 166, 166); fill-opacity: 1;"/>
        </g>
      </g>
      <g style="clip-path: url('#clippath0');">
        <g transform="translate(57.4185 39.7568)">
          <path d="M 0 0 C 0 -0.838 -0.248 -1.505 -0.745 -2.003 C -1.31 -2.595 -2.045 -2.891 -2.949 -2.891 C -3.816 -2.891 -4.552 -2.591 -5.157 -1.99 C -5.764 -1.39 -6.066 -0.645 -6.066 0.243 C -6.066 1.132 -5.764 1.876 -5.157 2.477 C -4.552 3.077 -3.816 3.378 -2.949 3.378 C -2.52 3.378 -2.108 3.294 -1.718 3.126 C -1.327 2.958 -1.014 2.735 -0.779 2.456 L -1.307 1.928 C -1.704 2.402 -2.251 2.64 -2.949 2.64 C -3.581 2.64 -4.127 2.418 -4.588 1.974 C -5.049 1.529 -5.279 0.953 -5.279 0.243 C -5.279 -0.466 -5.049 -1.043 -4.588 -1.487 C -4.127 -1.932 -3.581 -2.153 -2.949 -2.153 C -2.279 -2.153 -1.721 -1.93 -1.273 -1.483 C -0.983 -1.192 -0.816 -0.788 -0.771 -0.268 L -2.949 -0.268 L -2.949 0.453 L -0.042 0.453 C -0.014 0.296 0 0.145 0 0" style="fill: rgb(255, 255, 255); fill-opacity: 1;"/>
        </g>
      </g>
      <g style="clip-path: url('#clippath0');">
        <g transform="translate(57.4185 39.7568)">
          <path d="M 0 0 C 0 -0.838 -0.248 -1.505 -0.745 -2.003 C -1.31 -2.595 -2.045 -2.891 -2.949 -2.891 C -3.816 -2.891 -4.552 -2.591 -5.157 -1.99 C -5.764 -1.39 -6.066 -0.645 -6.066 0.243 C -6.066 1.132 -5.764 1.876 -5.157 2.477 C -4.552 3.077 -3.816 3.378 -2.949 3.378 C -2.52 3.378 -2.108 3.294 -1.718 3.126 C -1.327 2.958 -1.014 2.735 -0.779 2.456 L -1.307 1.928 C -1.704 2.402 -2.251 2.64 -2.949 2.64 C -3.581 2.64 -4.127 2.418 -4.588 1.974 C -5.049 1.529 -5.279 0.953 -5.279 0.243 C -5.279 -0.466 -5.049 -1.043 -4.588 -1.487 C -4.127 -1.932 -3.581 -2.153 -2.949 -2.153 C -2.279 -2.153 -1.721 -1.93 -1.273 -1.483 C -0.983 -1.192 -0.816 -0.788 -0.771 -0.268 L -2.949 -0.268 L -2.949 0.453 L -0.042 0.453 C -0.014 0.296 0 0.145 0 0 Z" style="fill: none; stroke: rgb(255, 255, 255); stroke-opacity: 1; stroke-miterlimit: 0; stroke-width: 0.2px; stroke-dashoffset: 0px;"/>
        </g>
      </g>
      <g style="clip-path: url('#clippath0');">
        <g transform="translate(62.0278 42.2627)">
          <path d="M 0 0 L -2.732 0 L -2.732 -1.902 L -0.268 -1.902 L -0.268 -2.623 L -2.732 -2.623 L -2.732 -4.525 L 0 -4.525 L 0 -5.263 L -3.503 -5.263 L -3.503 0.737 L 0 0.737 Z" style="fill: rgb(255, 255, 255); fill-opacity: 1;"/>
        </g>
      </g>
      <g style="clip-path: url('#clippath0');">
        <g transform="translate(62.0278 42.2627)">
          <path d="M 0 0 L -2.732 0 L -2.732 -1.902 L -0.268 -1.902 L -0.268 -2.623 L -2.732 -2.623 L -2.732 -4.525 L 0 -4.525 L 0 -5.263 L -3.503 -5.263 L -3.503 0.737 L 0 0.737 L 0 0 Z" style="fill: none; stroke: rgb(255, 255, 255); stroke-opacity: 1; stroke-miterlimit: 0; stroke-width: 0.2px; stroke-dashoffset: 0px;"/>
        </g>
      </g>
      <g style="clip-path: url('#clippath0');">
        <g transform="translate(65.2788 37)">
          <path d="M 0 0 L -0.771 0 L -0.771 5.263 L -2.447 5.263 L -2.447 6 L 1.676 6 L 1.676 5.263 L 0 5.263 Z" style="fill: rgb(255, 255, 255); fill-opacity: 1;"/>
        </g>
      </g>
      <g style="clip-path: url('#clippath0');">
        <g transform="translate(65.2788 37)">
          <path d="M 0 0 L -0.771 0 L -0.771 5.263 L -2.447 5.263 L -2.447 6 L 1.676 6 L 1.676 5.263 L 0 5.263 L 0 0 Z" style="fill: none; stroke: rgb(255, 255, 255); stroke-opacity: 1; stroke-miterlimit: 0; stroke-width: 0.2px; stroke-dashoffset: 0px;"/>
        </g>
      </g>
      <g style="clip-path: url('#clippath0');">
        <g transform="">
          <path d="M 69.938 43 L 70.709 43 L 70.709 37 L 69.938 37 Z" style="fill: rgb(255, 255, 255); stroke: rgb(255, 255, 255); stroke-opacity: 1; stroke-miterlimit: 0; stroke-width: 0.2px; stroke-dashoffset: 0px; fill-opacity: 1;"/>
        </g>
        <g transform="translate(74.1284 37)">
          <path d="M 0 0 L -0.771 0 L -0.771 5.263 L -2.447 5.263 L -2.447 6 L 1.676 6 L 1.676 5.263 L 0 5.263 Z" style="fill: rgb(255, 255, 255); fill-opacity: 1;"/>
        </g>
        <g transform="translate(74.1284 37)">
          <path d="M 0 0 L -0.771 0 L -0.771 5.263 L -2.447 5.263 L -2.447 6 L 1.676 6 L 1.676 5.263 L 0 5.263 L 0 0 Z" style="fill: none; stroke: rgb(255, 255, 255); stroke-opacity: 1; stroke-miterlimit: 0; stroke-width: 0.2px; stroke-dashoffset: 0px;"/>
        </g>
        <g transform="translate(79.7793 38.2778)">
          <path d="M 0 0 C 0.444 -0.45 0.987 -0.674 1.63 -0.674 C 2.273 -0.674 2.816 -0.45 3.26 0 C 3.704 0.45 3.927 1.024 3.927 1.722 C 3.927 2.42 3.704 2.995 3.26 3.444 C 2.816 3.894 2.273 4.119 1.63 4.119 C 0.987 4.119 0.444 3.894 0 3.444 C -0.443 2.995 -0.666 2.42 -0.666 1.722 C -0.666 1.024 -0.443 0.45 0 0 M 3.83 -0.502 C 3.24 -1.109 2.507 -1.412 1.63 -1.412 C 0.753 -1.412 0.02 -1.109 -0.569 -0.502 C -1.159 0.104 -1.453 0.845 -1.453 1.722 C -1.453 2.599 -1.159 3.341 -0.569 3.947 C 0.02 4.553 0.753 4.857 1.63 4.857 C 2.502 4.857 3.233 4.552 3.826 3.943 C 4.418 3.334 4.714 2.594 4.714 1.722 C 4.714 0.845 4.419 0.104 3.83 -0.502" style="fill: rgb(255, 255, 255); fill-opacity: 1;"/>
        </g>
        <g transform="translate(79.7793 38.2778)">
          <path d="M 0 0 C 0.444 -0.45 0.987 -0.674 1.63 -0.674 C 2.273 -0.674 2.816 -0.45 3.26 0 C 3.704 0.45 3.927 1.024 3.927 1.722 C 3.927 2.42 3.704 2.995 3.26 3.444 C 2.816 3.894 2.273 4.119 1.63 4.119 C 0.987 4.119 0.444 3.894 0 3.444 C -0.443 2.995 -0.666 2.42 -0.666 1.722 C -0.666 1.024 -0.443 0.45 0 0 Z M 3.83 -0.502 C 3.24 -1.109 2.507 -1.412 1.63 -1.412 C 0.753 -1.412 0.02 -1.109 -0.569 -0.502 C -1.159 0.104 -1.453 0.845 -1.453 1.722 C -1.453 2.599 -1.159 3.341 -0.569 3.947 C 0.02 4.553 0.753 4.857 1.63 4.857 C 2.502 4.857 3.233 4.552 3.826 3.943 C 4.418 3.334 4.714 2.594 4.714 1.722 C 4.714 0.845 4.419 0.104 3.83 -0.502 Z" style="fill: none; stroke: rgb(255, 255, 255); stroke-opacity: 1; stroke-miterlimit: 0; stroke-width: 0.2px; stroke-dashoffset: 0px;"/>
        </g>
        <g transform="translate(85.5752 37)">
          <path d="M 0 0 L 0 6 L 0.938 6 L 3.854 1.333 L 3.888 1.333 L 3.854 2.489 L 3.854 6 L 4.626 6 L 4.626 0 L 3.821 0 L 0.77 4.894 L 0.737 4.894 L 0.77 3.737 L 0.77 0 Z" style="fill: rgb(255, 255, 255); fill-opacity: 1;"/>
        </g>
        <g transform="translate(85.5752 37)">
          <path d="M 0 0 L 0 6 L 0.938 6 L 3.854 1.333 L 3.888 1.333 L 3.854 2.489 L 3.854 6 L 4.626 6 L 4.626 0 L 3.821 0 L 0.77 4.894 L 0.737 4.894 L 0.77 3.737 L 0.77 0 L 0 0 Z" style="fill: none; stroke: rgb(255, 255, 255); stroke-opacity: 1; stroke-miterlimit: 0; stroke-width: 0.2px; stroke-dashoffset: 0px;"/>
        </g>
        <g transform="">
          <path d="M 116.936 20 L 118.802 20 L 118.802 32.501 L 116.936 32.501 Z M 133.743 27.998 L 131.604 22.578 L 131.54 22.578 L 129.32 27.998 L 127.31 27.998 L 130.639 20.423 L 128.742 16.209 L 130.687 16.209 L 135.818 27.998 Z M 123.161 21.42 C 122.549 21.42 121.697 21.725 121.697 22.482 C 121.697 23.446 122.758 23.816 123.675 23.816 C 124.495 23.816 124.882 23.639 125.38 23.398 C 125.235 22.24 124.238 21.42 123.161 21.42 M 123.386 28.271 C 122.035 28.271 120.635 27.676 120.057 26.357 L 121.713 25.666 C 122.067 26.357 122.726 26.583 123.418 26.583 C 124.383 26.583 125.364 26.004 125.38 24.974 L 125.38 24.846 C 125.042 25.039 124.319 25.328 123.434 25.328 C 121.649 25.328 119.831 24.347 119.831 22.514 C 119.831 20.841 121.295 19.763 122.935 19.763 C 124.19 19.763 124.882 20.326 125.316 20.986 L 125.38 20.986 L 125.38 20.021 L 127.181 20.021 L 127.181 24.814 C 127.181 27.033 125.525 28.271 123.386 28.271 M 111.854 26.476 L 109.2 26.476 L 109.2 30.761 L 111.854 30.761 C 113.249 30.761 114.041 29.606 114.041 28.619 C 114.041 27.65 113.249 26.476 111.854 26.476 M 111.806 32.501 L 107.335 32.501 L 107.335 20 L 109.2 20 L 109.2 24.736 L 111.806 24.736 C 113.874 24.736 115.907 26.234 115.907 28.619 C 115.907 31.004 113.874 32.501 111.806 32.501 M 87.425 21.418 C 86.136 21.418 85.057 22.497 85.057 23.979 C 85.057 25.477 86.136 26.573 87.425 26.573 C 88.698 26.573 89.696 25.477 89.696 23.979 C 89.696 22.497 88.698 21.418 87.425 21.418 M 89.568 27.298 L 89.503 27.298 C 89.084 27.797 88.279 28.248 87.264 28.248 C 85.137 28.248 83.188 26.38 83.188 23.979 C 83.188 21.595 85.137 19.742 87.264 19.742 C 88.279 19.742 89.084 20.193 89.503 20.709 L 89.568 20.709 L 89.568 20.096 C 89.568 18.469 88.698 17.599 87.296 17.599 C 86.152 17.599 85.443 18.421 85.153 19.114 L 83.526 18.437 C 83.993 17.309 85.234 15.924 87.296 15.924 C 89.487 15.924 91.34 17.213 91.34 20.354 L 91.34 27.991 L 89.568 27.991 Z M 92.629 20 L 94.498 20 L 94.498 32.502 L 92.629 32.502 Z M 97.252 24.124 C 97.204 25.767 98.525 26.605 99.475 26.605 C 100.217 26.605 100.845 26.235 101.054 25.703 Z M 103.052 25.542 C 102.698 26.492 101.618 28.248 99.411 28.248 C 97.22 28.248 95.4 26.525 95.4 23.995 C 95.4 21.611 97.204 19.742 99.62 19.742 C 101.57 19.742 102.698 20.934 103.165 21.627 L 101.715 22.594 C 101.232 21.885 100.571 21.418 99.62 21.418 C 98.67 21.418 97.993 21.853 97.558 22.706 L 103.245 25.059 Z M 57.744 26.943 L 57.744 25.139 L 62.061 25.139 C 61.932 24.124 61.594 23.383 61.079 22.868 C 60.45 22.239 59.467 21.546 57.744 21.546 C 55.085 21.546 53.007 23.689 53.007 26.347 C 53.007 29.006 55.085 31.148 57.744 31.148 C 59.178 31.148 60.225 30.584 60.998 29.859 L 62.271 31.132 C 61.191 32.163 59.758 32.953 57.744 32.953 C 54.103 32.953 51.042 29.988 51.042 26.347 C 51.042 22.706 54.103 19.742 57.744 19.742 C 59.709 19.742 61.191 20.387 62.351 21.595 C 63.544 22.787 63.914 24.462 63.914 25.816 C 63.914 26.235 63.882 26.621 63.817 26.943 Z M 68.823 21.418 C 67.534 21.418 66.422 22.481 66.422 23.995 C 66.422 25.526 67.534 26.573 68.823 26.573 C 70.111 26.573 71.223 25.526 71.223 23.995 C 71.223 22.481 70.111 21.418 68.823 21.418 M 68.823 28.248 C 66.47 28.248 64.553 26.46 64.553 23.995 C 64.553 21.546 66.47 19.742 68.823 19.742 C 71.175 19.742 73.092 21.546 73.092 23.995 C 73.092 26.46 71.175 28.248 68.823 28.248 M 78.136 21.418 C 76.847 21.418 75.735 22.481 75.735 23.995 C 75.735 25.526 76.847 26.573 78.136 26.573 C 79.425 26.573 80.536 25.526 80.536 23.995 C 80.536 22.481 79.425 21.418 78.136 21.418 M 78.136 28.248 C 75.784 28.248 73.867 26.46 73.867 23.995 C 73.867 21.546 75.784 19.742 78.136 19.742 C 80.488 19.742 82.405 21.546 82.405 23.995 C 82.405 26.46 80.488 28.248 78.136 28.248" style="fill: rgb(255, 255, 255); fill-opacity: 1;"/>
        </g>
        <g transform="translate(30.7173 30.5759)">
          <path d="M 0 0 L -10.647 -11.3 C -10.646 -11.302 -10.646 -11.305 -10.645 -11.307 C -10.318 -12.534 -9.198 -13.437 -7.868 -13.437 C -7.336 -13.437 -6.837 -13.293 -6.409 -13.041 L -6.375 -13.021 L 5.609 -6.106 Z" style="fill: rgb(234, 67, 53); fill-opacity: 1;"/>
        </g>
        <g transform="translate(41.4882 32.5001)">
          <path d="M 0 0 L -0.01 0.007 L -5.184 3.006 L -11.013 -2.181 L -5.163 -8.029 L -0.017 -5.06 C 0.885 -4.572 1.498 -3.621 1.498 -2.525 C 1.498 -1.435 0.894 -0.489 0 0" style="fill: rgb(251, 188, 4); fill-opacity: 1;"/>
        </g>
        <g transform="translate(20.0701 40.7229)">
          <path d="M 0 0 C -0.064 -0.236 -0.098 -0.484 -0.098 -0.74 L -0.098 -20.708 C -0.098 -20.964 -0.064 -21.212 0.001 -21.447 L 11.013 -10.436 Z" style="fill: rgb(66, 133, 244); fill-opacity: 1;"/>
        </g>
        <g transform="translate(30.7959 29.9991)">
          <path d="M 0 0 L 5.51 5.509 L -6.46 12.449 C -6.895 12.71 -7.403 12.86 -7.946 12.86 C -9.276 12.86 -10.398 11.955 -10.725 10.727 C -10.725 10.726 -10.726 10.725 -10.726 10.724 Z" style="fill: rgb(52, 168, 83); fill-opacity: 1;"/>
        </g>
      </g>
    </g>
  </g>
</svg>