<svg fill="none" height="51" viewBox="0 0 51 51" width="51" xmlns="http://www.w3.org/2000/svg"><path clip-rule="evenodd" d="m25.3971 50.7365c-4.6258 0-8.9647-1.2449-12.6985-3.4033l-12.6986 3.4033 3.40212-12.6864v-.2731c-2.15602-3.7347-3.40212-7.7829-3.40212-12.4087 0-14.0119 11.3673-25.3683 25.3927-25.3683 14.0253 0 25.3926 11.3564 25.3926 25.3683 0 14.0118-11.3673 25.3682-25.3926 25.3682zm-8.3775-34.4229c-1.7975 0-3.2542 1.4554-3.2542 3.2511s1.4567 3.2511 3.2542 3.2511c1.7974 0 3.2542-1.4554 3.2542-3.2511s-1.4568-3.2511-3.2542-3.2511zm12.9496-2.3689c-1.7975 0-3.2542 1.4554-3.2542 3.2511s1.4567 3.2511 3.2542 3.2511c1.7974 0 3.2542-1.4554 3.2542-3.2511s-1.4568-3.2511-3.2542-3.2511zm10.5873 9.6278c-.753.0045-1.4074.421-1.7526 1.0345-.7171 1.0747-4.3434 6.0454-11.0535 7.8187-6.8087 1.8002-13.2499-1.8942-14.9308-2.969-.1165-.094-.2376-.1791-.372-.2463-.0314-.0224-.0493-.0358-.0493-.0358v.009c-.2824-.1344-.5917-.206-.9189-.2015-1.143.0089-2.06193.9448-2.04848 2.0823.00897.7881.45272 1.4688 1.10718 1.8136 1.7974 1.2135 9.2337 5.7006 18.3329 3.5421 7.7276-1.836 12.2951-8.0739 13.2275-9.4621.3227-.3628.5155-.8419.511-1.3614-.009-1.124-.9279-2.024-2.053-2.0151z" fill="#8e24aa" fill-rule="evenodd"/></svg>